HIERARCHY
ROOT Hips
{
	OFFSET -0.001795 -0.223333 0.028219
	CHANNELS 6 Xposition Yposition Zposition Zrotation Yrotation Xrotation 
	JOINT LeftUpLeg
	{
		OFFSET 0.069520 -0.091406 -0.006815
		CHANNELS 3 Zrotation Yrotation Xrotation
		JOINT LeftLeg
		{
			OFFSET 0.034277 -0.375199 -0.004496
			CHANNELS 3 Zrotation Yrotation Xrotation
			JOINT LeftFoot
			{
				OFFSET -0.013596 -0.397961 -0.043693
				CHANNELS 3 Zrotation Yrotation Xrotation
				JOINT LeftToe
				{
					OFFSET 0.026358 -0.055791 0.119288
					CHANNELS 3 Zrotation Yrotation Xrotation
					End Site
					{
						OFFSET 0.000000 0.000000 0.000000
					}
				}
			}
		}
	}
	JOINT RightUpLeg
	{
		OFFSET -0.067670 -0.090522 -0.004320
		CHANNELS 3 Zrotation Yrotation Xrotation
		JOINT RightLeg
		{
			OFFSET -0.038290 -0.382569 -0.008850
			CHANNELS 3 Zrotation Yrotation Xrotation
			JOINT RightFoot
			{
				OFFSET 0.015774 -0.398415 -0.042312
				CHANNELS 3 Zrotation Yrotation Xrotation
				JOINT RightToe
				{
					OFFSET -0.025372 -0.048144 0.123348
					CHANNELS 3 Zrotation Yrotation Xrotation
					End Site
					{
						OFFSET 0.000000 0.000000 0.000000
					}
				}
			}
		}
	}
	JOINT Spine
	{
		OFFSET -0.002533 0.108963 -0.026696
		CHANNELS 3 Zrotation Yrotation Xrotation
		JOINT Spine1
		{
			OFFSET 0.005487 0.135180 0.001092
			CHANNELS 3 Zrotation Yrotation Xrotation
			JOINT Spine2
			{
				OFFSET 0.001457 0.052922 0.025425
				CHANNELS 3 Zrotation Yrotation Xrotation
				JOINT Neck
				{
					OFFSET -0.002778 0.213870 -0.042857
					CHANNELS 3 Zrotation Yrotation Xrotation
					JOINT Head
					{
						OFFSET 0.005152 0.064970 0.051349
						CHANNELS 3 Zrotation Yrotation Xrotation
						End Site
						{
							OFFSET 0.000000 0.000000 0.000000
						}
					}
				}
				JOINT LeftShoulder
				{
					OFFSET 0.078845 0.121749 -0.034090
					CHANNELS 3 Zrotation Yrotation Xrotation
					JOINT LeftArm
					{
						OFFSET 0.090977 0.030469 -0.008868
						CHANNELS 3 Zrotation Yrotation Xrotation
						JOINT LeftForeArm
						{
							OFFSET 0.259612 -0.012772 -0.027456
							CHANNELS 3 Zrotation Yrotation Xrotation
							JOINT LeftHand
							{
								OFFSET 0.249234 0.008986 -0.001171
								CHANNELS 3 Zrotation Yrotation Xrotation
								End Site
								{
									OFFSET 0.000000 0.000000 0.000000
								}
							}
						}
					}
				}
				JOINT RightShoulder
				{
					OFFSET -0.081759 0.118833 -0.038615
					CHANNELS 3 Zrotation Yrotation Xrotation
					JOINT RightArm
					{
						OFFSET -0.096012 0.032551 -0.009143
						CHANNELS 3 Zrotation Yrotation Xrotation
						JOINT RightForeArm
						{
							OFFSET -0.253742 -0.013329 -0.021401
							CHANNELS 3 Zrotation Yrotation Xrotation
							JOINT RightHand
							{
								OFFSET -0.255298 0.007772 -0.005559
								CHANNELS 3 Zrotation Yrotation Xrotation
								End Site
								{
									OFFSET 0.000000 0.000000 0.000000
								}
							}
						}
					}
				}
			}
		}
	}
}
MOTION
Frames: 13
Frame Time: 0.050000
-0.016775 0.969457 -0.009374 -0.780820 8.005598 0.471522 4.821891 -0.197667 -1.206095 -1.410749 0.115264 0.620346 2.162012 10.192507 16.305058 0.000000 0.000000 0.000000 -2.570835 0.116200 -1.214524 2.405897 -0.268093 2.464094 -8.412489 -19.804198 13.755400 0.000000 0.000000 0.000000 7.257854 -0.169755 0.673702 -5.423295 2.153693 -20.805569 -0.770461 4.710688 28.502756 6.113491 -0.250090 -26.928979 0.000000 0.000000 0.000000 -7.254098 -9.333760 2.472470 -29.691136 -20.891945 -0.389205 146.891158 -70.492331 -133.394548 0.000000 0.000000 0.000000 26.568475 -7.248365 -2.794896 61.712711 6.175227 -5.923915 -7.555243 46.155755 1.880707 0.000000 0.000000 0.000000 
-0.017389 0.969133 -0.011114 -0.653643 7.346311 0.695404 4.595340 -0.215719 -1.771231 -1.252882 0.088567 1.111621 2.507255 10.645108 16.458135 0.000000 0.000000 0.000000 -2.634757 0.177153 -1.924417 2.445826 -0.264472 2.876645 -8.345444 -19.756545 13.361024 0.000000 0.000000 0.000000 7.308676 -0.210377 1.024850 -5.497832 2.156108 -20.909383 -1.024495 5.303900 28.800968 6.971260 -0.656604 -27.376697 0.000000 0.000000 0.000000 -8.662222 -8.766111 2.097756 -31.341403 -16.528379 -1.230803 156.216133 -77.059780 -149.559956 0.000000 0.000000 0.000000 26.700216 -7.549707 -2.933653 61.815941 5.954009 -6.075968 -7.078566 46.854076 2.187476 0.000000 0.000000 0.000000 
-0.017895 0.968637 -0.012735 -0.657725 6.674082 0.861707 4.637396 -0.239683 -2.332431 -1.526018 0.101633 1.810195 2.726554 10.816379 16.207832 0.000000 0.000000 0.000000 -2.492522 0.226504 -2.470602 2.331924 -0.237799 3.236858 -8.293226 -19.728473 13.093746 0.000000 0.000000 0.000000 7.436858 -0.222630 1.089486 -5.512101 2.156168 -20.618540 -1.309002 5.941819 28.780146 7.454879 -0.817273 -27.922662 0.000000 0.000000 0.000000 -9.750763 -7.932363 1.603700 -33.397093 -13.577797 -1.904403 176.318379 -83.917922 -175.232878 0.000000 0.000000 0.000000 26.915085 -8.107278 -3.267902 61.815458 5.900780 -6.095116 -6.229511 47.083091 2.583651 0.000000 0.000000 0.000000 
-0.018372 0.968053 -0.014025 -0.645680 6.205007 1.051985 4.531781 -0.252306 -2.645377 -1.606021 0.106898 2.030509 2.955732 11.158561 16.516017 0.000000 0.000000 0.000000 -2.611742 0.263473 -2.920669 2.378526 -0.237813 3.504179 -8.185537 -19.579844 12.871446 0.000000 0.000000 0.000000 7.634416 -0.248095 1.245417 -5.740315 2.206139 -20.630194 -1.565994 6.332375 28.964140 8.296070 -1.209339 -28.433578 0.000000 0.000000 0.000000 -10.659013 -7.898990 1.476578 -35.386565 -10.979067 -2.629822 -100.571369 -86.318296 97.602195 0.000000 0.000000 0.000000 27.112984 -8.412488 -3.448549 62.107015 5.829551 -6.159779 -6.174036 46.966233 2.641732 0.000000 0.000000 0.000000 
-0.018817 0.967757 -0.015035 -0.657686 5.944893 1.232092 4.635595 -0.270778 -3.006432 -1.887720 0.131695 2.398615 3.320854 11.555836 16.102282 0.000000 0.000000 0.000000 -2.477940 0.287239 -3.165816 2.235391 -0.216465 3.290326 -8.032781 -19.321093 12.915499 0.000000 0.000000 0.000000 7.660860 -0.248446 1.207304 -5.779080 2.204626 -20.772857 -1.674216 6.337674 29.082745 8.547729 -1.322999 -28.828567 0.000000 0.000000 0.000000 -11.708058 -7.920633 1.396627 -37.228417 -9.858679 -3.047875 -49.643232 -81.459004 44.262225 0.000000 0.000000 0.000000 27.324659 -8.455090 -3.547599 61.710567 6.316956 -5.923106 -6.395181 45.851316 2.403621 0.000000 0.000000 0.000000 
-0.019216 0.967389 -0.015848 -0.748889 5.639080 1.412711 4.779745 -0.284660 -3.290803 -1.987646 0.141153 2.572084 3.523710 11.868565 16.382712 0.000000 0.000000 0.000000 -2.357232 0.309232 -3.386267 2.364774 -0.234468 3.181289 -8.013416 -19.310341 12.867051 0.000000 0.000000 0.000000 7.829061 -0.278770 1.404630 -5.843146 2.210974 -20.866004 -1.793083 6.590857 29.033975 8.786163 -1.325304 -29.637856 0.000000 0.000000 0.000000 -12.344131 -8.231553 1.453144 -39.555281 -9.074615 -3.445788 -40.137462 -75.032976 32.239628 0.000000 0.000000 0.000000 27.770416 -8.451635 -3.544693 61.551616 7.141973 -5.535164 -7.105163 43.588053 1.940372 0.000000 0.000000 0.000000 
-0.019634 0.967133 -0.016425 -0.722880 5.413237 1.593513 4.836279 -0.286512 -3.326608 -2.253069 0.177765 2.368208 3.818920 12.205400 16.111045 0.000000 0.000000 0.000000 -2.225138 0.311909 -3.367729 2.166143 -0.209811 2.736787 -7.884972 -19.092689 13.032215 0.000000 0.000000 0.000000 7.884511 -0.289985 1.454239 -5.971801 2.232478 -21.039307 -1.758938 6.579845 29.154209 8.965635 -1.361112 -30.280015 0.000000 0.000000 0.000000 -13.103912 -8.948542 1.735204 -41.634755 -8.620925 -3.770578 -35.268308 -69.301772 25.848055 0.000000 0.000000 0.000000 28.226717 -8.097666 -3.367650 61.379756 8.380479 -4.956182 -8.168226 40.763935 1.331480 0.000000 0.000000 0.000000 
-0.019981 0.966626 -0.016675 -0.828708 5.131675 1.725543 5.029007 -0.289085 -3.399110 -2.352846 0.192661 2.281392 4.054389 12.499547 16.067293 0.000000 0.000000 0.000000 -1.985549 0.319146 -3.388668 2.147632 -0.211192 2.348037 -7.869249 -19.090270 13.000061 0.000000 0.000000 0.000000 7.956406 -0.296694 1.471712 -5.801339 2.183276 -20.997198 -1.851164 6.623823 28.911230 8.703398 -1.134613 -30.966790 0.000000 0.000000 0.000000 -13.523247 -9.325145 1.887838 -44.151889 -8.290067 -4.094369 -31.930333 -63.070207 21.070490 0.000000 0.000000 0.000000 28.433219 -7.855204 -3.266972 61.378230 9.181924 -4.526779 -8.657574 38.053945 0.971483 0.000000 0.000000 0.000000 
-0.020313 0.966615 -0.016640 -0.890260 5.043275 1.899867 5.049559 -0.281257 -3.206126 -2.360646 0.203711 1.714550 4.095525 12.560821 16.143212 0.000000 0.000000 0.000000 -1.680168 0.317874 -3.308840 1.913398 -0.184699 1.983221 -7.872448 -19.100856 13.109554 0.000000 0.000000 0.000000 7.994659 -0.290012 1.361127 -5.716784 2.152613 -21.144855 -1.839147 6.307525 29.100318 8.766615 -1.197436 -31.244047 0.000000 0.000000 0.000000 -14.198691 -10.057090 2.255994 -46.231882 -8.377781 -4.277694 -27.444433 -57.305414 16.504070 0.000000 0.000000 0.000000 28.460397 -7.469589 -3.128994 61.645863 9.691250 -4.264269 -9.047753 36.163368 0.717950 0.000000 0.000000 0.000000 
-0.020631 0.966440 -0.016554 -1.012971 5.142933 2.110255 5.198355 -0.281367 -3.124991 -2.452599 0.220498 1.249199 4.427939 13.048764 16.178661 0.000000 0.000000 0.000000 -1.529265 0.311508 -3.203102 1.965875 -0.201496 1.475405 -7.819117 -19.000570 13.035393 0.000000 0.000000 0.000000 8.084568 -0.262904 1.035981 -5.589412 2.131296 -20.791270 -1.979884 5.843072 28.879826 8.485532 -1.020874 -31.888019 0.000000 0.000000 0.000000 -14.498419 -10.625419 2.583524 -47.884726 -9.128184 -4.134273 -22.172419 -51.248816 12.079872 0.000000 0.000000 0.000000 28.335461 -7.018756 -2.968931 62.041654 10.254309 -3.899753 -9.198839 35.004420 0.569288 0.000000 0.000000 0.000000 
-0.021088 0.966509 -0.016829 -1.059354 5.206502 2.316918 5.329754 -0.289257 -3.221031 -2.554373 0.235851 0.904076 4.505601 13.178127 16.254942 0.000000 0.000000 0.000000 -1.291767 0.306982 -3.112306 1.807033 -0.188381 1.100460 -7.873346 -19.091958 13.091037 0.000000 0.000000 0.000000 7.975867 -0.260516 0.990824 -5.302435 2.051717 -20.882119 -2.120790 5.307467 28.875926 8.462195 -1.051683 -32.198419 0.000000 0.000000 0.000000 -14.876498 -11.107919 2.904227 -48.660063 -9.786406 -3.953935 -18.333840 -47.203259 9.448140 0.000000 0.000000 0.000000 28.074411 -6.653198 -2.896093 62.218703 10.313003 -3.817866 -8.626503 34.867179 0.653642 0.000000 0.000000 0.000000 
-0.021766 0.966637 -0.017639 -1.078834 5.212118 2.504837 5.442094 -0.298710 -3.374949 -2.693685 0.252236 0.741143 4.714599 13.511276 16.480153 0.000000 0.000000 0.000000 -1.254360 0.311694 -3.152607 1.952293 -0.209792 0.942724 -7.629819 -18.666653 12.634833 0.000000 0.000000 0.000000 7.985744 -0.274117 1.061254 -5.197307 2.023452 -20.860506 -2.206391 4.930066 28.802389 8.714636 -1.201365 -32.538661 0.000000 0.000000 0.000000 -15.055568 -11.344032 3.097092 -48.947808 -10.976238 -3.519555 -14.071211 -44.032562 7.093593 0.000000 0.000000 0.000000 28.206089 -6.454785 -2.914529 62.399428 10.843182 -3.511871 -8.584093 35.012129 0.632401 0.000000 0.000000 0.000000 
-0.022633 0.966701 -0.018945 -1.141486 5.143020 2.619444 5.441274 -0.309076 -3.597532 -2.646392 0.247893 0.728509 4.827790 13.690783 16.644048 0.000000 0.000000 0.000000 -1.126931 0.324037 -3.269024 1.885456 -0.205324 0.720700 -7.642420 -18.693358 12.700571 0.000000 0.000000 0.000000 7.968822 -0.288762 1.172387 -5.044058 1.977418 -20.967210 -2.377089 4.627736 28.775635 8.647247 -1.248991 -32.340654 0.000000 0.000000 0.000000 -15.115493 -11.533728 3.267557 -48.782656 -11.756793 -3.211767 -10.659376 -43.718218 5.718556 0.000000 0.000000 0.000000 28.131241 -5.996828 -2.723226 62.920090 11.046276 -3.362728 -8.790932 36.349348 0.603303 0.000000 0.000000 0.000000 
